<?xml version="1.0" encoding="utf-8"?>
<!-- Generator: Adobe Illustrator 26.0.1, SVG Export Plug-In . SVG Version: 6.00 Build 0)  -->
<svg version="1.1" id="Calque_1" xmlns="http://www.w3.org/2000/svg" xmlns:xlink="http://www.w3.org/1999/xlink" x="0px" y="0px"
	 viewBox="0 0 1440 320" style="enable-background:new 0 0 1440 320;" xml:space="preserve">
<style type="text/css">
	.st0{fill:#008036;}
</style>
<path class="st0" d="M0,260.7l40,16c40,16,120,48,200,42.7c80-5.7,160-47.7,240-48c80,0.3,160,42.3,240,48c80,5.3,160-26.7,240-32
	c80-5.7,160,16.3,240,16c80,0.3,160-21.7,200-32l40-10.7v-96h-40c-40,0-120,0-200,0s-160,0-240,0s-160,0-240,0s-160,0-240,0
	s-160,0-240,0s-160,0-200,0H0V260.7z"/>
</svg>
