<?xml version="1.0" standalone="no"?>
<svg xmlns:xlink="http://www.w3.org/1999/xlink" id="wave" style="transform:rotate(0deg); transition: 0.3s" viewBox="0 0 1440 150" version="1.1" xmlns="http://www.w3.org/2000/svg"><defs><linearGradient id="sw-gradient-0" x1="0" x2="0" y1="1" y2="0"><stop stop-color="rgba(0, 128, 54, 1)" offset="0%"/><stop stop-color="rgba(0, 128, 54, 1)" offset="100%"/></linearGradient></defs><path style="transform:translate(0, 0px); opacity:1" fill="url(#sw-gradient-0)" d="M0,75L40,80C80,85,160,95,240,105C320,115,400,125,480,120C560,115,640,95,720,80C800,65,880,55,960,45C1040,35,1120,25,1200,35C1280,45,1360,75,1440,87.5C1520,100,1600,95,1680,97.5C1760,100,1840,110,1920,115C2000,120,2080,120,2160,122.5C2240,125,2320,130,2400,112.5C2480,95,2560,55,2640,40C2720,25,2800,35,2880,37.5C2960,40,3040,35,3120,50C3200,65,3280,100,3360,117.5C3440,135,3520,135,3600,125C3680,115,3760,95,3840,75C3920,55,4000,35,4080,42.5C4160,50,4240,85,4320,90C4400,95,4480,70,4560,60C4640,50,4720,55,4800,50C4880,45,4960,30,5040,35C5120,40,5200,65,5280,77.5C5360,90,5440,90,5520,80C5600,70,5680,50,5720,40L5760,30L5760,150L5720,150C5680,150,5600,150,5520,150C5440,150,5360,150,5280,150C5200,150,5120,150,5040,150C4960,150,4880,150,4800,150C4720,150,4640,150,4560,150C4480,150,4400,150,4320,150C4240,150,4160,150,4080,150C4000,150,3920,150,3840,150C3760,150,3680,150,3600,150C3520,150,3440,150,3360,150C3280,150,3200,150,3120,150C3040,150,2960,150,2880,150C2800,150,2720,150,2640,150C2560,150,2480,150,2400,150C2320,150,2240,150,2160,150C2080,150,2000,150,1920,150C1840,150,1760,150,1680,150C1600,150,1520,150,1440,150C1360,150,1280,150,1200,150C1120,150,1040,150,960,150C880,150,800,150,720,150C640,150,560,150,480,150C400,150,320,150,240,150C160,150,80,150,40,150L0,150Z"/></svg>