<?xml version="1.0" standalone="no"?><svg xmlns="http://www.w3.org/2000/svg" viewBox="0 0 1440 320"><path fill="#008036" fill-opacity="1" d="M0,224L40,208C80,192,160,160,240,165.3C320,171,400,213,480,213.3C560,213,640,171,720,165.3C800,160,880,192,960,197.3C1040,203,1120,181,1200,181.3C1280,181,1360,203,1400,213.3L1440,224L1440,320L1400,320C1360,320,1280,320,1200,320C1120,320,1040,320,960,320C880,320,800,320,720,320C640,320,560,320,480,320C400,320,320,320,240,320C160,320,80,320,40,320L0,320Z"></path></svg>